<svg width="1280" height="360" viewBox="0 0 1280 360" fill="none" xmlns="http://www.w3.org/2000/svg" role="img" aria-labelledby="title desc">
  <title id="title">Kodovye Community</title>
  <desc id="desc">A clean banner for the Kodovye community hub.</desc>
  <rect width="1280" height="360" rx="28" fill="#0D1117"/>
  <path d="M0 258C142 214 261 216 383 247C548 289 686 325 850 271C1036 209 1135 98 1280 128V360H0V258Z" fill="#102A43"/>
  <path d="M0 296C155 246 277 260 405 288C571 325 707 347 879 292C1035 242 1139 171 1280 188V360H0V296Z" fill="#123D36"/>
  <rect x="64" y="56" width="1152" height="248" rx="22" fill="#161B22" stroke="#30363D" stroke-width="2"/>
  <rect x="96" y="88" width="168" height="8" rx="4" fill="#58A6FF"/>
  <rect x="96" y="112" width="112" height="8" rx="4" fill="#3FB950"/>
  <text x="96" y="184" fill="#F0F6FC" font-family="Inter, ui-sans-serif, system-ui, -apple-system, BlinkMacSystemFont, Segoe UI, sans-serif" font-size="58" font-weight="800" letter-spacing="0">KODOVYE COMMUNITY</text>
  <text x="100" y="228" fill="#8B949E" font-family="Inter, ui-sans-serif, system-ui, -apple-system, BlinkMacSystemFont, Segoe UI, sans-serif" font-size="24" font-weight="500" letter-spacing="0">Discussions / Ideas / Help / Polls / Showcase</text>
  <g transform="translate(888 96)">
    <rect x="0" y="0" width="236" height="38" rx="8" fill="#21262D" stroke="#30363D"/>
    <rect x="16" y="14" width="76" height="10" rx="5" fill="#58A6FF"/>
    <rect x="104" y="14" width="80" height="10" rx="5" fill="#8B949E"/>
    <rect x="196" y="14" width="24" height="10" rx="5" fill="#3FB950"/>
    <rect x="28" y="66" width="236" height="38" rx="8" fill="#21262D" stroke="#30363D"/>
    <rect x="44" y="80" width="96" height="10" rx="5" fill="#D2A8FF"/>
    <rect x="152" y="80" width="74" height="10" rx="5" fill="#8B949E"/>
    <rect x="238" y="80" width="10" height="10" rx="5" fill="#F85149"/>
    <rect x="-18" y="132" width="236" height="38" rx="8" fill="#21262D" stroke="#30363D"/>
    <rect x="-2" y="146" width="54" height="10" rx="5" fill="#3FB950"/>
    <rect x="64" y="146" width="104" height="10" rx="5" fill="#8B949E"/>
    <rect x="180" y="146" width="22" height="10" rx="5" fill="#58A6FF"/>
  </g>
</svg>
